<svg width="278" height="77" viewBox="0 0 278 77" fill="none" xmlns="http://www.w3.org/2000/svg">
<path d="M69.2029 20.3113H65.544C63.5112 20.3113 61.7835 19.6054 60.3593 18.1904C58.9367 16.777 58.2247 15.0587 58.2247 13.0405V9.40508C58.2247 7.38366 57.5126 5.6686 56.0885 4.25203C54.666 2.83861 52.9367 2.1311 50.9037 2.1311H35.046C33.0132 2.1311 31.2854 2.83861 29.8614 4.25203C28.4389 5.66702 27.7267 7.38366 27.7267 9.40508V13.0405C27.7267 15.0587 27.0147 16.777 25.5906 18.1904C24.168 19.6054 22.4387 20.3113 20.4059 20.3113H16.747C14.7142 20.3113 12.9865 21.0188 11.5623 22.4338C10.1398 23.8472 9.42773 25.5654 9.42773 27.5837V49.4009C9.42773 51.4192 10.1382 53.1374 11.5623 54.5508C12.9849 55.9658 14.7142 56.6717 16.747 56.6717H20.4059C22.4387 56.6717 24.1664 57.3792 25.5906 58.7942C27.0132 60.2076 27.7267 61.9259 27.7267 63.9441V67.5795C27.7267 69.6009 28.4373 71.316 29.8614 72.7326C31.2839 74.146 33.0132 74.8535 35.046 74.8535H50.9037C52.9367 74.8535 54.6643 74.146 56.0885 72.7326C57.511 71.3176 58.2247 69.6009 58.2247 67.5795V63.9441C58.2247 61.9259 58.9352 60.2076 60.3593 58.7942C61.7819 57.3792 63.5112 56.6717 65.544 56.6717H69.2029C71.2357 56.6717 72.9635 55.9658 74.3876 54.5508C75.81 53.1374 76.5237 51.4192 76.5237 49.4009V27.5837C76.5237 25.5654 75.8117 23.8472 74.3876 22.4338C72.965 21.0188 71.2357 20.3113 69.2029 20.3113ZM58.2247 49.4009C58.2247 51.4192 57.5126 53.1374 56.0885 54.5508C54.666 55.9658 52.9367 56.6717 50.9037 56.6717H35.046C33.0132 56.6717 31.2854 55.9658 29.8614 54.5508C28.4389 53.1374 27.7267 51.4192 27.7267 49.4009V27.5837C27.7267 25.5654 28.4373 23.8472 29.8614 22.4338C31.2839 21.0188 33.0132 20.3113 35.046 20.3113H50.9037C52.9367 20.3113 54.6643 21.0188 56.0885 22.4338C57.511 23.8472 58.2247 25.5654 58.2247 27.5837V49.4009Z" fill="white"/>
<path d="M88.719 18.2263C87.3587 18.7129 86.38 19.7111 85.9736 21.0309C85.8906 21.3031 85.8574 21.8969 85.8574 23.1508C85.8574 25.0479 85.9071 25.3284 86.4131 26.2522C86.6786 26.7388 87.4749 27.4895 88.014 27.7617C88.7771 28.1411 89.1337 28.1988 90.9586 28.24C93.339 28.2978 93.9197 28.4793 94.9067 29.5021C95.479 30.096 95.6283 30.3352 95.927 31.0941L96.1011 31.556V43.5164C96.1011 54.9656 96.1094 55.4935 96.2587 55.9306C96.5159 56.706 96.7978 57.1596 97.3121 57.6628C97.8678 58.2072 98.465 58.5702 99.0871 58.7434C99.676 58.9083 102.82 58.9083 103.4 58.7434C104.346 58.4794 105.466 57.5803 105.88 56.7802C106.378 55.7986 106.345 56.5658 106.37 43.5082L106.395 31.556L106.577 31.0694C107.075 29.7496 107.995 28.8422 109.248 28.4545C109.696 28.3061 110.077 28.2731 111.529 28.24C113.843 28.1906 114.424 28.0092 115.419 27.0357C115.983 26.4831 116.315 25.9304 116.506 25.1881C116.655 24.6273 116.68 21.9877 116.547 21.2783C116.423 20.5936 116.016 19.8678 115.444 19.2822C114.913 18.7378 114.523 18.4903 113.735 18.2263C113.304 18.0779 112.815 18.0696 101.211 18.0779C89.8388 18.0779 89.1089 18.0943 88.719 18.2263Z" fill="white"/>
<path d="M122.884 18.2467C122.602 18.3457 122.204 18.5273 122.005 18.6509C121.524 18.9232 120.827 19.682 120.562 20.2182C120.089 21.1338 120.114 20.4245 120.114 33.317C120.114 46.3662 120.081 45.5496 120.595 46.5476C120.885 47.1251 121.764 47.9582 122.386 48.2469C123.091 48.5769 123.589 48.6511 125.041 48.6511C125.729 48.6511 126.559 48.6923 126.874 48.7336C128.309 48.9397 129.536 49.9297 130.092 51.3236C130.241 51.6784 130.274 52.0247 130.324 53.6414C130.391 55.6458 130.432 55.9098 130.855 56.7429C131.154 57.3286 131.983 58.1205 132.647 58.4504C133.46 58.8546 133.982 58.8959 137.59 58.8546C141.074 58.8216 141.157 58.8134 141.97 58.3349C142.501 58.0297 143.297 57.2296 143.537 56.7595C143.91 56.0253 143.985 55.5552 144.035 53.7652C144.06 52.6846 144.117 51.9258 144.193 51.6619C144.625 50.1358 146 48.9233 147.543 48.7254C147.85 48.6923 148.689 48.6511 149.393 48.6511C150.87 48.6511 151.516 48.5273 152.205 48.1396C152.786 47.8098 153.566 47.0344 153.823 46.5312C154.312 45.5579 154.287 46.3415 154.287 33.317C154.287 20.3997 154.312 21.1338 153.839 20.2017C153.566 19.6738 152.712 18.7913 152.213 18.5438C151.317 18.09 151.069 18.0488 149.186 18.0488C147.312 18.0488 147.055 18.09 146.159 18.5438C145.429 18.9149 144.616 19.8387 144.276 20.6884C144.135 21.0348 144.126 21.8102 144.085 33.1438C144.043 44.5928 144.035 45.2527 143.886 45.6816C143.629 46.4488 143.355 46.9024 142.816 47.4468C142.534 47.7355 142.111 48.0655 141.878 48.181C140.999 48.6264 140.726 48.6511 137.234 48.6511C133.733 48.6511 133.385 48.6181 132.539 48.1892C132.008 47.9253 131.179 47.1087 130.872 46.556C130.324 45.5743 130.366 46.556 130.316 33.2262C130.283 24.7549 130.241 21.0679 130.183 20.8946C129.835 19.9542 129.063 18.9892 128.334 18.6015C127.405 18.0983 127.131 18.0488 125.182 18.0571C123.531 18.0571 123.349 18.0735 122.884 18.2467Z" fill="white"/>
<path d="M160.541 18.2346C159.776 18.515 159.329 18.8038 158.856 19.3234C158.392 19.8266 158.068 20.3957 157.894 20.9979C157.804 21.3031 157.778 24.7263 157.754 38.3694C157.728 54.6769 157.736 55.378 157.878 55.8565C158.126 56.6319 158.401 57.1102 158.931 57.6216C159.478 58.1578 160.092 58.529 160.714 58.7104C161.295 58.8754 164.438 58.8754 165.028 58.7104C165.948 58.4547 167.085 57.564 167.482 56.7968C167.922 55.9389 167.914 55.9555 167.972 52.7219C168.038 49.4061 168.072 49.1092 168.511 48.1853C169.025 47.113 169.846 46.288 170.908 45.7685C171.954 45.2653 173.222 45.1168 174.334 45.3808C176.084 45.7932 177.602 47.2367 178.108 48.9688C178.158 49.1256 178.224 50.6681 178.258 52.392C178.324 55.7574 178.332 55.8069 178.796 56.7307C179.095 57.3165 179.958 58.1413 180.605 58.4465C181.276 58.7683 181.915 58.8671 183.466 58.8671C184.859 58.8671 185.772 58.7269 186.286 58.4382C187.339 57.8362 188.036 57.0112 188.394 55.9389C188.559 55.444 188.551 48.7627 188.385 48.1853C188.036 46.9561 186.949 45.8426 185.722 45.4467C185.506 45.3808 184.735 45.2982 183.898 45.257C182.006 45.158 181.425 45.0013 180.464 44.3167C179.601 43.7062 178.921 42.8155 178.598 41.8834C178.066 40.3408 178.265 38.6251 179.145 37.3219C179.808 36.3238 180.878 35.5319 181.989 35.2267C182.238 35.1608 183.101 35.07 183.898 35.0288C184.735 34.9875 185.506 34.9051 185.722 34.839C187.066 34.4019 188.194 33.1233 188.459 31.7376C188.568 31.1602 188.568 28.6608 188.459 28.0917C188.194 26.7142 187.049 25.4439 185.664 24.9985C185.365 24.8995 184.711 24.85 183.068 24.8087C180.738 24.7428 180.546 24.7181 179.866 24.2808C179.452 24.0252 178.896 23.423 178.688 23.0106C178.431 22.5156 178.348 22.1775 178.265 21.3113C178.125 19.8926 177.461 18.8945 176.291 18.3418L175.728 18.0779L168.386 18.0614L161.046 18.0449L160.541 18.2346ZM175.262 28.2649C176.639 28.4463 177.701 29.329 178.132 30.6488C178.356 31.3334 178.282 32.3645 177.958 33.0491C177.644 33.709 176.972 34.4019 176.382 34.6741C175.678 34.9957 175.155 35.0453 172.832 35.0122C170.809 34.9875 170.635 34.971 170.186 34.7896C169.556 34.5421 168.984 34.0801 168.602 33.511C168.162 32.8511 168.031 32.3398 168.072 31.4406C168.096 30.8219 168.146 30.6076 168.362 30.162C168.844 29.1476 169.846 28.4134 170.975 28.2731C171.712 28.1741 174.534 28.1741 175.262 28.2649Z" fill="white"/>
<path d="M194.847 18.1926C193.644 18.5719 192.616 19.5865 192.193 20.7991C192.027 21.2775 192.027 21.4754 192.027 38.4015C192.019 57.0598 191.986 55.7484 192.483 56.7299C192.781 57.3155 193.611 58.1074 194.274 58.4374C194.564 58.5776 195.046 58.7343 195.344 58.7838C196.074 58.891 209.18 58.8993 209.786 58.7838C210.449 58.66 211.063 58.3137 211.544 57.794C212.1 57.2 212.323 56.7382 212.431 55.9793C212.481 55.6411 212.556 55.1462 212.597 54.8822C212.821 53.4304 214.031 52.2922 215.567 52.0942C215.873 52.0612 216.853 52.0282 217.749 52.02C218.984 52.02 219.473 51.987 219.821 51.888C221.257 51.4674 222.369 50.2795 222.683 48.8113C222.833 48.0853 222.833 45.8087 222.683 45.0829C222.393 43.7219 221.447 42.6249 220.111 42.0969C219.739 41.9485 219.416 41.9154 217.491 41.8659C216.006 41.8247 215.184 41.7669 214.961 41.6928C214.371 41.4947 213.907 41.206 213.493 40.7854C211.843 39.1026 212.381 36.3559 214.571 35.333L215.127 35.0691L217.367 35.0196C218.784 34.9867 219.714 34.9288 219.896 34.8712C221.199 34.4175 222.21 33.4029 222.609 32.1409C222.733 31.7615 222.759 31.3902 222.75 29.8726C222.75 28.231 222.733 28.0166 222.567 27.5877C222.227 26.6638 221.53 25.8224 220.717 25.3523C219.963 24.9151 219.68 24.8656 217.491 24.8326C216.371 24.8079 215.293 24.7501 215.086 24.7006C213.791 24.379 212.771 23.2653 212.597 21.9786C212.556 21.6982 212.489 21.2115 212.44 20.9063C212.257 19.5783 211.361 18.5554 210.034 18.1512C209.719 18.0606 208.409 18.0357 202.477 18.044C195.9 18.0523 195.261 18.0606 194.847 18.1926ZM210.134 28.3796C211.751 28.8991 212.754 30.5901 212.44 32.2563C212.316 32.941 212.059 33.4276 211.544 33.9638C211.046 34.4835 210.44 34.8217 209.786 34.9453C209.18 35.0608 205.506 35.0526 204.95 34.9371C204.311 34.8051 203.597 34.4009 203.166 33.9226C201.623 32.2233 202.146 29.5343 204.211 28.5692C204.924 28.231 205.356 28.1898 207.703 28.2227C209.263 28.2392 209.827 28.2806 210.134 28.3796ZM210.117 41.9814C211.719 42.5011 212.739 44.1673 212.456 45.7922C212.331 46.5182 212.074 47.0214 211.527 47.5988C211.037 48.102 210.673 48.3246 210.034 48.5226C209.47 48.6875 205.257 48.6875 204.684 48.5144C203.797 48.2504 202.976 47.5327 202.586 46.6831C201.631 44.6293 202.976 42.1793 205.207 41.8659C206.029 41.7504 209.686 41.8412 210.117 41.9814Z" fill="white"/>
<path d="M239.389 18.2079C238.65 18.447 238.252 18.6862 237.722 19.2224C236.75 20.1957 236.486 21.0454 236.486 23.1735C236.486 24.7324 236.41 25.2274 236.079 25.9285C235.797 26.5307 234.926 27.4379 234.353 27.7268C233.54 28.1392 233.152 28.2051 231.177 28.2712C229.253 28.3371 229.07 28.37 228.299 28.766C228.116 28.8568 227.726 29.1619 227.445 29.4506C226.773 30.1187 226.383 30.9024 226.275 31.8097C226.225 32.181 226.209 35.1834 226.225 38.92C226.25 46.0138 226.225 45.6426 226.756 46.5994C227.03 47.1109 227.892 47.9192 228.44 48.1997C229.162 48.5626 229.692 48.6534 231.136 48.6534C232.762 48.6534 233.475 48.7523 234.122 49.0576C234.71 49.3298 235.573 50.0886 235.872 50.6083C236.377 51.4496 236.419 51.6888 236.493 53.7262C236.56 55.7471 236.61 56.0524 237.042 56.8278C237.34 57.3887 238.227 58.1888 238.842 58.4775C239.687 58.8652 240.119 58.8899 245.452 58.8569C250.819 58.8321 250.686 58.8404 251.54 58.3372C252.07 58.0319 252.867 57.232 253.107 56.7617C253.48 56.0193 253.556 55.5574 253.606 53.7262C253.63 52.5468 253.689 51.8704 253.772 51.6147C254.252 50.0803 255.596 48.9256 257.115 48.7276C257.42 48.6946 258.259 48.6534 258.963 48.6534C260.44 48.6534 261.087 48.5297 261.776 48.142C262.356 47.812 263.136 47.0367 263.393 46.5335C263.875 45.5849 263.857 45.8407 263.857 38.4333C263.857 32.8409 263.833 31.554 263.742 31.2406C263.326 29.8796 262.19 28.7413 260.913 28.4196C260.573 28.3288 259.876 28.2712 258.715 28.2463C256.915 28.2051 256.625 28.1557 255.729 27.7019C255.247 27.4628 254.352 26.5966 254.136 26.176C253.696 25.3346 253.647 25.0211 253.606 23.2065C253.565 21.3423 253.506 20.9793 253.149 20.2617C252.676 19.3132 251.806 18.5954 250.702 18.2161C250.255 18.0593 249.98 18.051 245.037 18.0593C240.293 18.0593 239.803 18.0759 239.389 18.2079ZM250.669 28.3949C251.44 28.6505 251.847 28.898 252.377 29.4506C252.9 29.995 253.182 30.4652 253.456 31.2489C253.606 31.6778 253.613 32.049 253.613 38.4251C253.613 45.8076 253.63 45.4942 253.107 46.5253C252.835 47.0614 251.972 47.9192 251.44 48.1914C250.545 48.6368 250.387 48.6534 245.029 48.6534C239.655 48.6534 239.563 48.6452 238.683 48.1832C237.572 47.5976 236.776 46.4922 236.577 45.2632C236.46 44.5785 236.452 32.3047 236.569 31.6283C236.826 30.0775 238.145 28.6753 239.637 28.37C240.4 28.2133 240.442 28.2133 245.402 28.2298C249.79 28.2463 250.255 28.2629 250.669 28.3949Z" fill="white"/>
</svg>
